<svg width="24" height="24" viewBox="0 0 24 24" fill="none" xmlns="http://www.w3.org/2000/svg">
<path d="M19.5367 18.5523C18.9991 19.1805 18.3063 19.9652 16.5017 19.9992C12.5366 20.074 8.20773 14.8554 7.01961 11.7602C6.28698 9.84993 4.83494 5.49832 7.72503 4.28723C8.57809 3.94677 9.05178 3.99229 9.21973 4.01696C9.55127 4.06566 9.71004 4.37234 9.9069 4.76386C10.1038 5.15538 11.0224 7.09597 11.1537 7.45345C11.2849 7.81093 11.2454 7.95958 10.9896 8.35566C10.6895 8.82057 9.80847 9.41106 9.5788 9.63236C9.33272 9.87068 9.33773 10.0916 9.49678 10.5005C9.64697 10.8867 10.1038 12.1687 11.3834 13.6667C12.3841 14.8243 13.598 15.6073 13.959 15.8286C14.3363 16.0499 14.5331 15.8286 14.7136 15.6414C15.0693 15.2354 15.4377 14.9179 15.9087 14.6572C16.1548 14.5211 16.4134 14.5676 16.6002 14.637C16.8042 14.7129 18.618 15.4712 19.3398 15.8116C19.9632 16.101 19.9796 16.4074 19.996 16.6968C19.996 17.2922 20.0743 17.9241 19.5367 18.5523Z" fill="black"/>
</svg>
